<svg width="1280" height="640" viewBox="0 0 1280 640" fill="none" xmlns="http://www.w3.org/2000/svg">
  <defs>
    <linearGradient id="bg" x1="80" y1="40" x2="1180" y2="620" gradientUnits="userSpaceOnUse">
      <stop stop-color="#FFF6EA"/>
      <stop offset="1" stop-color="#F1E7D8"/>
    </linearGradient>
    <radialGradient id="glow1" cx="0" cy="0" r="1" gradientUnits="userSpaceOnUse" gradientTransform="translate(1060 120) rotate(133.025) scale(299.62 287.515)">
      <stop stop-color="#E8844D" stop-opacity="0.38"/>
      <stop offset="1" stop-color="#E8844D" stop-opacity="0"/>
    </radialGradient>
    <radialGradient id="glow2" cx="0" cy="0" r="1" gradientUnits="userSpaceOnUse" gradientTransform="translate(160 120) rotate(72.4188) scale(246.504 215.575)">
      <stop stop-color="#7D9A72" stop-opacity="0.28"/>
      <stop offset="1" stop-color="#7D9A72" stop-opacity="0"/>
    </radialGradient>
    <filter id="shadow" x="0" y="0" width="1280" height="640" filterUnits="userSpaceOnUse" color-interpolation-filters="sRGB">
      <feDropShadow dx="0" dy="20" stdDeviation="24" flood-color="#7B563B" flood-opacity="0.18"/>
    </filter>
  </defs>

  <rect width="1280" height="640" rx="32" fill="url(#bg)"/>
  <rect width="1280" height="640" rx="32" fill="url(#glow1)"/>
  <rect width="1280" height="640" rx="32" fill="url(#glow2)"/>

  <g filter="url(#shadow)">
    <rect x="64" y="56" width="1152" height="528" rx="34" fill="#FFFDF9" fill-opacity="0.88"/>
    <rect x="64.75" y="56.75" width="1150.5" height="526.5" rx="33.25" stroke="#A67A5A" stroke-opacity="0.15" stroke-width="1.5"/>
  </g>

  <text x="110" y="136" fill="#8D3F1E" font-family="Georgia, serif" font-size="26" letter-spacing="5">DEUTSCHSPRACHIGES LERNPROJEKT</text>
  <text x="110" y="250" fill="#221B16" font-family="Georgia, serif" font-size="82" font-weight="700">C++ Learning</text>
  <text x="110" y="336" fill="#221B16" font-family="Georgia, serif" font-size="82" font-weight="700">Repository</text>
  <text x="110" y="404" fill="#5D554F" font-family="Georgia, serif" font-size="31">Erklaerungen, kommentierte Beispiele, Uebungen und Loesungen</text>

  <g>
    <rect x="110" y="462" width="210" height="84" rx="20" fill="#F4D7BF"/>
    <text x="145" y="512" fill="#8D3F1E" font-family="Georgia, serif" font-size="30" font-weight="700">Basics</text>
  </g>

  <g>
    <rect x="340" y="462" width="220" height="84" rx="20" fill="#F6E7C8"/>
    <text x="382" y="512" fill="#72511D" font-family="Georgia, serif" font-size="30" font-weight="700">Pointers</text>
  </g>

  <g>
    <rect x="580" y="462" width="180" height="84" rx="20" fill="#DCE8D6"/>
    <text x="629" y="512" fill="#4D6543" font-family="Georgia, serif" font-size="30" font-weight="700">OOP</text>
  </g>

  <g>
    <rect x="780" y="462" width="250" height="84" rx="20" fill="#F0E7DF"/>
    <text x="827" y="512" fill="#5A4C43" font-family="Georgia, serif" font-size="30" font-weight="700">Exercises</text>
  </g>

  <g>
    <rect x="914" y="120" width="222" height="222" rx="28" fill="#FBF2E9"/>
    <rect x="936" y="148" width="178" height="18" rx="9" fill="#E07A3F"/>
    <rect x="936" y="185" width="132" height="16" rx="8" fill="#D9C7B8"/>
    <rect x="936" y="218" width="164" height="16" rx="8" fill="#D9C7B8"/>
    <rect x="936" y="270" width="62" height="62" rx="16" fill="#F4D7BF"/>
    <rect x="1012" y="270" width="102" height="62" rx="16" fill="#DDE9D7"/>
  </g>
</svg>
